<svg fill="#FFFFFF" xmlns="http://www.w3.org/2000/svg"  viewBox="0 0 48 48" width="48px" height="48px"><path d="M 24 3 C 12.413858 3 3 12.413866 3 24 C 3 35.586134 12.413858 45 24 45 C 35.586142 45 45 35.586134 45 24 C 45 12.413866 35.586142 3 24 3 z M 24 5 C 34.505263 5 43 13.494744 43 24 C 43 34.505256 34.505263 43 24 43 C 13.494737 43 5 34.505256 5 24 C 5 13.494744 13.494737 5 24 5 z M 22.984375 9.9863281 A 1.0001 1.0001 0 0 0 22 11 L 22 13.107422 L 18.453125 13.107422 C 17.817125 13.107422 17.423828 13.517594 17.423828 14.183594 L 17.423828 33.875 C 17.423828 34.541 17.816125 34.950172 18.453125 34.951172 L 22 34.951172 L 22 37 A 1.0001 1.0001 0 1 0 24 37 L 24 34.951172 L 25.324219 34.951172 C 29.941219 34.951172 32.710938 32.681031 32.710938 28.957031 C 32.710938 25.929031 30.607078 23.884484 27.580078 23.521484 L 27.580078 23.417969 C 29.911078 22.993969 31.576172 20.918094 31.576172 18.496094 C 31.576172 15.272094 29.033297 13.107422 25.279297 13.107422 L 24 13.107422 L 24 11 A 1.0001 1.0001 0 0 0 22.984375 9.9863281 z M 19.482422 14.939453 L 24.839844 14.939453 C 27.745844 14.939453 29.486328 16.348609 29.486328 18.724609 C 29.486328 21.297609 27.549375 22.810547 24.234375 22.810547 L 19.482422 22.810547 L 19.482422 14.939453 z M 19.482422 24.595703 L 24.765625 24.595703 C 28.533625 24.595703 30.591797 26.124609 30.591797 28.849609 C 30.591797 31.559609 28.609109 33.119141 25.037109 33.119141 L 25.037109 33.117188 L 19.482422 33.117188 L 19.482422 24.595703 z"/></svg>