<svg fill="#FFFFFF" xmlns="http://www.w3.org/2000/svg"  viewBox="0 0 64 64" width="64px" height="64px"><path d="M 32 3 C 31.74425 3 31.488469 3.0974687 31.292969 3.2929688 L 13.228516 21.357422 C 12.837516 21.748422 12.837516 22.380484 13.228516 22.771484 L 20.003906 29.546875 C 20.394906 29.937875 21.026969 29.937875 21.417969 29.546875 L 32 18.962891 L 42.582031 29.546875 C 42.777031 29.741875 43.033062 29.839844 43.289062 29.839844 C 43.545062 29.839844 43.801094 29.740922 43.996094 29.544922 L 50.771484 22.771484 C 51.162484 22.380484 51.162484 21.748422 50.771484 21.357422 L 32.707031 3.2929688 C 32.511531 3.0974687 32.25575 3 32 3 z M 32 5.4140625 L 48.650391 22.064453 L 43.289062 27.425781 L 32.707031 16.841797 C 32.512031 16.646797 32.256 16.548828 32 16.548828 C 31.744 16.548828 31.487969 16.646797 31.292969 16.841797 L 20.710938 27.423828 L 15.349609 22.064453 L 32 5.4140625 z M 32 22.871094 C 31.74425 22.871094 31.488469 22.968563 31.292969 23.164062 L 23.164062 31.292969 C 22.773062 31.683969 22.773063 32.316031 23.164062 32.707031 L 31.292969 40.835938 C 31.487969 41.030938 31.744 41.128906 32 41.128906 C 32.256 41.128906 32.512031 41.030938 32.707031 40.835938 L 40.835938 32.707031 C 41.226938 32.316031 41.226937 31.683969 40.835938 31.292969 L 32.707031 23.164062 C 32.511531 22.968562 32.25575 22.871094 32 22.871094 z M 10.773438 24.226562 C 10.517687 24.226562 10.261906 24.324031 10.066406 24.519531 L 3.2929688 31.292969 C 2.9019687 31.683969 2.9019687 32.316031 3.2929688 32.707031 L 10.066406 39.480469 C 10.261406 39.675469 10.517437 39.773438 10.773438 39.773438 C 11.029438 39.773438 11.285469 39.676469 11.480469 39.480469 L 18.255859 32.707031 C 18.646859 32.316031 18.646859 31.683969 18.255859 31.292969 L 11.480469 24.519531 C 11.284969 24.324031 11.029188 24.226562 10.773438 24.226562 z M 53.226562 24.226562 C 52.970812 24.226562 52.715031 24.324031 52.519531 24.519531 L 45.744141 31.292969 C 45.353141 31.683969 45.353141 32.316031 45.744141 32.707031 L 52.519531 39.480469 C 52.714531 39.675469 52.970562 39.773438 53.226562 39.773438 C 53.481563 39.773438 53.737594 39.676469 53.933594 39.480469 L 60.707031 32.707031 C 61.098031 32.316031 61.098031 31.683969 60.707031 31.292969 L 53.933594 24.519531 C 53.738094 24.324031 53.482313 24.226562 53.226562 24.226562 z M 32 25.285156 L 38.714844 32 L 32 38.714844 L 25.285156 32 L 32 25.285156 z M 10.773438 26.640625 L 16.134766 32 L 10.773438 37.359375 L 5.4140625 32 L 10.773438 26.640625 z M 53.224609 26.640625 L 58.585938 32 L 53.224609 37.359375 L 47.865234 32 L 53.224609 26.640625 z M 43.289062 34.160156 C 43.033313 34.160156 42.777531 34.257625 42.582031 34.453125 L 32 45.037109 L 21.417969 34.455078 C 21.026969 34.064078 20.394906 34.064078 20.003906 34.455078 L 13.228516 41.228516 C 12.837516 41.619516 12.837516 42.251578 13.228516 42.642578 L 31.292969 60.707031 C 31.487969 60.902031 31.744 61 32 61 C 32.256 61 32.512031 60.902031 32.707031 60.707031 L 50.771484 42.642578 C 51.162484 42.251578 51.162484 41.619516 50.771484 41.228516 L 43.996094 34.453125 C 43.800594 34.257625 43.544812 34.160156 43.289062 34.160156 z M 20.710938 36.574219 L 31.292969 47.158203 C 31.683969 47.549203 32.316031 47.549203 32.707031 47.158203 L 43.289062 36.576172 L 48.650391 41.935547 L 32 58.585938 L 15.349609 41.935547 L 20.710938 36.574219 z M 12.169922 44.6875 C 11.914172 44.6875 11.658391 44.784969 11.462891 44.980469 L 10.048828 46.394531 C 9.6578281 46.785531 9.6578281 47.417594 10.048828 47.808594 C 10.439828 48.199594 11.071891 48.199594 11.462891 47.808594 L 12.876953 46.394531 C 13.267953 46.003531 13.267953 45.371469 12.876953 44.980469 C 12.681453 44.784969 12.425672 44.6875 12.169922 44.6875 z M 15.705078 48.224609 C 15.449328 48.224609 15.193547 48.322078 14.998047 48.517578 L 13.583984 49.931641 C 13.192984 50.322641 13.192984 50.954703 13.583984 51.345703 C 13.974984 51.736703 14.607047 51.736703 14.998047 51.345703 L 16.412109 49.931641 C 16.803109 49.540641 16.803109 48.908578 16.412109 48.517578 C 16.216609 48.322078 15.960828 48.224609 15.705078 48.224609 z M 19.240234 51.757812 C 18.984484 51.757812 18.728703 51.857234 18.533203 52.052734 L 17.119141 53.466797 C 16.728141 53.857797 16.728141 54.489859 17.119141 54.880859 C 17.510141 55.271859 18.142203 55.271859 18.533203 54.880859 L 19.947266 53.466797 C 20.338266 53.075797 20.338266 52.443734 19.947266 52.052734 C 19.751766 51.857234 19.495984 51.757812 19.240234 51.757812 z M 22.775391 55.294922 C 22.519641 55.294922 22.263859 55.392391 22.068359 55.587891 L 20.654297 57.001953 C 20.263297 57.392953 20.263297 58.025016 20.654297 58.416016 C 21.045297 58.807016 21.677359 58.807016 22.068359 58.416016 L 23.482422 57.001953 C 23.873422 56.610953 23.873422 55.978891 23.482422 55.587891 C 23.286922 55.392391 23.031141 55.294922 22.775391 55.294922 z M 26.3125 58.830078 C 26.05675 58.830078 25.800969 58.927547 25.605469 59.123047 L 24.191406 60.537109 C 23.800406 60.928109 23.800406 61.560172 24.191406 61.951172 C 24.582406 62.342172 25.214469 62.342172 25.605469 61.951172 L 27.019531 60.537109 C 27.410531 60.146109 27.410531 59.514047 27.019531 59.123047 C 26.824031 58.927547 26.56825 58.830078 26.3125 58.830078 z"/></svg>