<svg width="1200" height="1200" viewBox="0 0 1200 1200" fill="none" xmlns="http://www.w3.org/2000/svg">
<g opacity="0.17" clip-path="url(#clip0_11500_72765)">
<path d="M600 1140C898.234 1140 1140 898.234 1140 600C1140 301.766 898.234 60 600 60C301.766 60 60 301.766 60 600C60 898.234 301.766 1140 600 1140Z" fill="white"/>
<path fill-rule="evenodd" clip-rule="evenodd" d="M656.777 151.727C710.033 160.296 728.987 164.979 759.251 177.068C952.319 254.162 1067.98 441.091 1048.38 644.37C1045.79 671.328 1041.6 699.69 1039.08 707.394C1005.28 810.678 979.139 857.076 921.887 915.396C859.667 978.768 794.945 1015.69 701.027 1041.4C693.341 1043.5 667.757 1047.65 644.171 1050.61C550.699 1062.35 427.719 1031.74 353.476 978.27C340.945 969.252 329.561 961.866 328.173 961.866C326.785 961.866 317.008 953.988 306.443 944.358C227.356 872.268 178.717 790.998 159.037 698.052C146.921 640.848 143.144 595.247 148.459 570.406C151.346 556.898 153.713 539.463 153.713 531.661C153.713 508.982 171.86 449.146 191.47 407.174C239.345 304.693 332.296 218.559 439.951 176.909C471.206 164.82 480.792 163.06 501.348 165.632C522.719 168.308 526.324 167.538 530.707 159.32C533.817 153.496 544.562 149.48 560.422 147.423C583.997 144.365 618.875 145.634 656.777 151.727ZM535.398 295.634C525.886 266.834 543.233 231.904 572.937 220.03C599.944 209.234 633.707 218.064 651.335 240.532C662.987 255.376 665.159 293.51 655.451 312.742C648.299 326.923 617.027 345.343 599.935 345.451C572.443 345.614 544.877 324.336 535.398 295.634ZM598.463 434.241C599.534 434.241 612.569 426.892 627.431 417.913C642.287 408.929 657.071 401.575 660.269 401.57C664.739 401.561 666.095 423.749 666.095 497.001C666.095 549.497 667.967 593.603 670.247 595.022C675.275 598.137 703.757 585.689 809.891 533.981C854.411 512.293 893.003 495.273 895.655 496.16C898.301 497.047 901.115 502.043 901.913 507.264C903.101 515.048 892.169 523.219 841.349 552.547C807.245 572.222 777.923 588.327 776.189 588.327C774.455 588.327 764.705 593.603 754.517 600.048C744.335 606.492 723.941 618.264 709.199 626.202C691.199 635.898 680.687 640.662 674.561 648.744C665.075 661.254 666.095 681.72 666.095 740.736C666.095 787.812 663.755 836.334 660.893 848.574C646.943 908.244 615.095 951.78 570.603 972.012C551.948 980.49 539.371 982.536 507.399 982.29C471.574 982.02 464.559 980.43 438.982 966.768C391.783 941.55 369.937 901.044 374.036 846.342C376.812 809.358 392.742 774.612 417.737 751.044C437.809 732.114 501.022 687.966 535.282 668.934C552.148 659.574 567.487 649.686 569.369 646.968C571.25 644.244 572.82 612.012 572.862 575.342C572.918 520.441 571.702 508.184 565.973 505.98C562.144 504.504 530.176 515.841 494.939 531.166C459.696 546.49 428.553 558.163 425.73 557.104C417.83 554.134 423.471 534.794 434.203 528.074C444.483 521.641 464.852 509.968 498.404 491.29C509.933 484.87 536.721 469.41 557.938 456.929C579.151 444.453 597.386 434.241 598.463 434.241Z" fill="#6B6B6B"/>
<path fill-rule="evenodd" clip-rule="evenodd" d="M649.789 32.6845C651.475 40.3888 654.529 46.6923 656.563 46.6923C658.603 46.6923 666.781 47.995 674.731 49.5919C687.313 52.1133 689.797 50.89 693.877 40.132C696.451 33.3382 701.833 26.5164 705.841 24.9756C711.799 22.683 784.879 39.8518 791.425 45.0814C792.463 45.9079 794.557 54.1071 796.081 63.2913C798.007 74.9271 802.831 82.3749 811.981 87.8565C824.659 95.4393 825.427 95.3463 833.695 85.2135C845.281 71.0049 860.305 71.9997 886.597 88.7157C898.717 96.4197 910.333 102.723 912.409 102.723C914.479 102.723 919.981 106.935 924.631 112.081C931.777 120 932.221 123.333 927.481 133.746C922.603 144.476 923.215 147.474 932.215 157.074C944.059 169.718 955.843 171.194 964.207 161.089C967.399 157.237 971.557 154.085 973.453 154.085C979.225 154.085 1007.82 178.585 1026.96 199.919C1045.02 220.062 1045.03 220.085 1037.02 233.682C1024.07 255.637 1041.42 279.558 1064.03 270.938C1079.83 264.92 1090.29 275.36 1112.89 319.681L1128.81 350.918L1115.79 361.326C1102.95 371.589 1102.88 371.939 1110.47 386.643C1116.74 398.82 1120.96 401.556 1133.44 401.556C1146.7 401.556 1149.79 403.942 1156.62 419.468C1160.95 429.32 1164.5 442.557 1164.5 448.884C1164.5 455.211 1166.76 462.653 1169.52 465.422C1178.93 474.854 1172.45 496.744 1158.24 503.542C1146.19 509.309 1145.29 511.396 1148.19 526.912C1151.56 544.898 1157.56 551.556 1167.1 547.886C1170.28 546.668 1174.42 548.18 1176.32 551.258C1180.46 557.976 1180.35 642.198 1176.19 648.954C1174.58 651.564 1168.15 653.694 1161.89 653.694C1155.64 653.694 1150.52 655.536 1150.52 657.78C1150.52 660.03 1149.21 668.454 1147.6 676.494C1144.96 689.742 1146.06 691.608 1159.25 696.216C1171.65 700.542 1173.82 703.626 1173.82 716.916C1173.82 725.502 1171.72 733.824 1169.15 735.408C1166.59 736.998 1164.4 743.946 1164.28 750.858C1164.16 757.77 1160.48 770.778 1156.11 779.766C1150.04 792.24 1144.86 796.452 1134.21 797.568C1108.87 800.214 1100.17 824.988 1119.08 840.642L1129.57 849.318L1113.26 880.452C1090.09 924.69 1079.69 935.034 1064.29 929.16C1063.34 928.794 1062.45 928.452 1061.62 928.134C1055.83 925.896 1052.78 924.72 1050.25 925.416C1047.44 926.19 1045.27 929.268 1040.68 935.778C1040.08 936.624 1039.45 937.524 1038.76 938.484C1029.59 951.39 1029.39 953.25 1036.12 962.868C1040.12 968.598 1043.39 975.696 1043.39 978.642C1043.39 985.908 983.119 1045.91 975.817 1045.91C972.619 1045.91 967.399 1042.76 964.207 1038.91C956.131 1029.16 948.133 1030.15 933.559 1042.71C922.873 1051.93 921.805 1054.97 926.299 1063.39C934.339 1078.45 928.957 1085.68 894.301 1106.31C858.001 1127.93 850.153 1129.17 835.717 1115.59C825.961 1106.39 824.659 1106.28 810.967 1113.37C800.209 1118.95 796.501 1124.12 796.447 1133.59C796.339 1152.68 792.769 1155.35 751.693 1166.94C710.497 1178.56 694.045 1175.96 694.045 1157.81C694.045 1151.39 690.895 1148.66 683.563 1148.71C662.047 1148.83 652.675 1154.03 651.223 1166.62L649.789 1178.99L600.121 1180.31L550.45 1181.63L547.455 1167.95C542.704 1146.28 510.456 1140.83 503.017 1160.43C497.311 1175.47 487.036 1179.34 468.707 1173.34C460.704 1170.72 444.723 1165.81 433.194 1162.43C405.605 1154.35 399.414 1149.11 401.92 1135.96C403.444 1127.96 400.546 1122.58 391.072 1115.81C378.915 1107.13 363.324 1107.4 363.324 1116.29C363.324 1118.5 358.946 1122.64 353.589 1125.52C345.316 1129.96 338.274 1127.36 306.604 1108.17L269.354 1085.6L272.196 1067.76C274.566 1052.89 273.276 1048.45 264.449 1041.07C251.328 1030.1 245.016 1029.77 235.267 1039.54C224.763 1050.07 211.25 1042.31 178.672 1007.03C154.194 980.538 153.547 979.164 160.492 968.538C170.362 953.442 169.561 946.578 156.481 934.266C147.38 925.692 143.509 924.666 135.861 928.77C122.175 936.108 114.14 931.17 101.801 907.86C95.7782 896.472 89.6066 887.16 88.0928 887.16C86.5742 887.16 82.559 878.73 79.1678 868.434C73.4576 851.076 73.7414 848.916 83.081 838.944C93.5192 827.814 96.659 812.454 88.5026 812.454C85.9406 812.454 83.8448 809.298 83.8448 805.446C83.8448 800.814 79.2242 798.444 70.2014 798.444C54.1407 798.444 43.0034 788.676 39.2118 771.27C37.712 764.388 33.6828 749.94 30.2592 739.17C22.5875 715.044 25.7968 700.98 40.2319 695.478C61.1882 687.486 50.745 649.026 27.6181 649.026C19.3222 649.026 18.6328 645.318 18.6328 600.582V552.14L32.0012 549.459C45.5514 546.742 51.0431 536.811 51.1736 514.786C51.2201 507.6 48.4766 504.28 42.491 504.28C24.7907 504.28 21.0177 492.228 29.6303 463.176C31.1006 458.216 32.4453 453.651 33.6823 449.453C44.0306 414.327 46.8469 404.768 52.683 402.273C54.8653 401.34 57.4698 401.396 61.0484 401.472C62.1914 401.496 63.434 401.522 64.7936 401.519C78.3806 401.491 82.6058 399.128 87.338 388.917C95.1728 372.005 94.7912 369.357 83.1416 359.902C70.4108 349.569 72.8516 338.969 97.199 298.832C115.552 268.58 117.201 267.567 141.413 271.681C146.588 272.559 154.013 267.95 159.844 260.241C169.263 247.788 169.324 246.84 161.535 233.617L153.454 219.908L184.425 186.995C211.753 157.956 232.9 145.499 232.9 158.442C232.9 168.56 252.487 168.822 263.085 158.843C271.739 150.691 273.383 145.298 271.501 131.229C269.196 113.995 269.578 113.505 298.746 96.0837C329.195 77.9019 358.666 69.3057 358.666 78.6021C358.666 81.4173 362.914 85.9983 368.103 88.7811C380.401 95.3787 405.493 79.0317 402.256 66.5319C398.52 52.0947 411.418 42.2425 446.931 32.4044C485.331 21.7725 503.064 23.276 503.064 37.167C503.064 49.5265 510.168 52.8184 529.149 49.2464C542.322 46.7717 545.824 43.6573 548.061 32.4417L550.809 18.6768H598.767H646.723L649.789 32.6845ZM159.546 382.818C228.69 236.722 378.873 129.161 537.999 111.768C598.595 105.147 695.851 113.127 742.951 128.586C824.395 155.318 888.349 194.778 949.615 256.095C1010.91 317.449 1045.76 378.854 1074.58 476.264C1085.04 511.611 1086.36 524.638 1086.64 595.331C1086.91 667.56 1085.78 679.122 1074.11 723.708C1067.05 750.66 1059.71 774.822 1057.79 777.402C1055.86 779.988 1049.52 793.656 1043.68 807.78C1028.75 843.924 988.579 903.15 956.497 936.318C892.291 1002.7 833.629 1039.88 747.469 1068.79C678.055 1092.08 590.662 1097.06 505.393 1082.59C471.828 1076.9 408.759 1056.75 387.779 1045.03C347.836 1022.72 336.573 1015.88 312.45 999.27C284.115 979.758 234.391 932.208 214.944 906.012C208.194 896.928 201.613 888.444 200.308 887.16C188.352 875.376 160.021 822.498 139.014 772.764C116.791 720.138 105.244 625.974 112.039 552.77C114.807 522.971 119.171 493.041 121.747 486.261C124.318 479.477 126.2 473.384 125.929 472.711C124.02 468.005 142.047 419.795 159.546 382.818Z" fill="#6B6B6B"/>
<path fill-rule="evenodd" clip-rule="evenodd" d="M531.011 21.3432C531.011 17.6778 534.305 11.3743 538.329 7.33542C544.151 1.5035 556.826 0 600.282 0C656.646 0 666.096 2.81555 666.096 19.6109C666.096 30.8451 676.404 30.2989 683.646 18.677C688.278 11.2389 694.428 9.36186 713.874 9.4599C741.066 9.59532 801.732 28.3517 806.454 38.0872C808.122 41.5378 811.89 50.3953 814.812 57.7727C819.786 70.3236 820.674 70.7022 828.492 63.6096C842.694 50.7175 861.894 54.7798 904.818 79.7508C945.54 103.443 947.958 106.506 945.978 131.906C944.85 146.363 945.072 146.479 961.572 140.195C968.616 137.51 977.874 137.3 984.114 139.676C998.988 145.345 1034.99 178.515 1050.29 200.652C1062.5 218.306 1063.15 224.274 1055.06 243.969C1052.21 250.912 1054.4 252.149 1069.67 252.21C1079.56 252.252 1089.79 253.826 1092.41 255.712C1099.36 260.717 1112.89 281.925 1134.8 322.179C1143.22 337.653 1142.92 361.63 1134.22 368.872C1123.33 377.935 1125.8 382.132 1145.06 387.329C1167.3 393.334 1175.26 408.542 1187.69 468.817C1192.24 490.828 1185.8 512.138 1173.43 516.079C1161.63 519.829 1161.93 532.296 1173.82 532.296C1178.94 532.296 1187.18 536.353 1192.13 541.312C1200.1 549.306 1200.92 555.698 1199.33 597.632C1197.11 656.454 1195.17 662.724 1178.1 666.144C1161.89 669.396 1160.44 677.718 1174.98 684.108C1188.88 690.222 1191.01 718.638 1180.67 759.966C1170.64 800.052 1162.36 812.454 1145.6 812.454C1129.02 812.454 1124.13 819.948 1133.77 830.622C1137.86 835.158 1141.21 844.554 1141.21 851.496C1141.21 866.574 1122.08 906 1102.94 930.348C1091.23 945.252 1086.47 947.862 1070.95 947.862C1060.91 947.862 1052.71 948.6 1052.71 949.5C1052.71 950.4 1054.99 957.714 1057.79 965.76C1064.21 984.222 1054.61 1001.24 1018.37 1035.59C992.064 1060.54 971.964 1069.57 962.934 1060.52C952.932 1050.49 944.322 1054.39 946.872 1067.77C950.862 1088.71 941.49 1100.13 901.938 1122.52C862.482 1144.86 835.896 1150.26 830.808 1136.96C827.28 1127.75 815.148 1127.93 815.148 1137.2C815.148 1155.12 801.036 1171.65 781.35 1176.77C770.478 1179.61 755.142 1183.89 747.276 1186.3C719.532 1194.77 695.43 1191.76 682.95 1178.26L671.484 1165.87L664.362 1182.94L657.252 1200H598.692H540.127L534.626 1187.16C531.603 1180.1 528.613 1173.55 527.984 1172.62C527.359 1171.69 521.211 1175.36 514.327 1180.79C506.324 1187.11 495.089 1190.66 483.178 1190.66C463.503 1190.66 429.234 1182.4 421.781 1175.86C419.345 1173.73 413.732 1171.99 409.303 1171.99C397.08 1171.99 386.614 1158.91 386.614 1143.64C386.614 1128.6 377.582 1125.37 367.982 1136.96C357.692 1149.4 335.473 1144.84 296.239 1122.25C275.492 1110.31 256.912 1098.23 254.951 1095.4C252.985 1092.58 251.876 1082.92 252.491 1073.93C253.581 1057.93 251.313 1056.08 235.229 1059.92C216.191 1064.45 204.122 1058 172.355 1026.28L138.668 992.646L141.281 970.512L143.899 948.372L124.35 946.95C106.063 945.618 103.585 943.662 85.842 916.602C59.6829 876.714 52.449 853.74 60.768 836.958C70.2288 817.884 69.1104 815.01 51.238 812.454C35.6896 810.222 34.3527 808.494 22.4189 775.098C5.55235 727.92 5.28216 699.024 21.5525 683.904C32.9041 673.362 33.1556 672.306 25.046 669.408C2.19391 661.242 0 655.128 0 599.608C0 543.749 4.01985 532.296 23.6207 532.296C35.7641 532.296 34.921 526.66 20.961 514.492C6.30228 501.717 5.56632 476.96 18.6134 435.254C31.5626 393.838 34.9349 389.024 53.4412 385.546C71.649 382.123 72.6924 380.012 62.7336 366.812C52.7611 353.594 54.1958 343.051 70.308 311.085C94.4082 263.272 104.819 252.14 125.431 252.14H143.252L140.927 231.446C138.827 212.783 140.322 208.641 156.159 189.268C190.819 146.867 215.483 133.074 241.051 141.801C250.395 144.99 251.531 143.846 251.531 131.272C251.531 105.964 260.056 95.8878 298.657 75.5628C339.386 54.1121 348.814 52.4078 365.611 63.4368C379.748 72.7236 386.614 68.7222 386.614 51.2078C386.614 35.3837 400.145 26.6008 440.935 15.9502C478.446 6.15408 506.31 7.20468 513.46 18.677C520.191 29.477 531.011 31.1206 531.011 21.3432ZM656.562 46.6926C654.528 46.6926 651.474 40.3891 649.788 32.6848L646.722 18.677H598.766H550.808L548.06 32.442C545.824 43.6576 542.321 46.772 529.148 49.2467C510.167 52.8187 503.063 49.5268 503.063 37.1673C503.063 23.2763 485.33 21.7728 446.93 32.4047C411.418 42.2428 398.519 52.0949 402.255 66.5322C405.493 79.032 380.4 95.379 368.102 88.7814C362.914 85.9986 358.666 81.4176 358.666 78.6024C358.666 69.306 329.194 77.9022 298.745 96.084C269.577 113.505 269.195 113.995 271.501 131.23C273.382 145.298 271.738 150.691 263.084 158.843C252.487 168.822 232.9 168.56 232.9 158.442C232.9 145.499 211.753 157.957 184.424 186.995L153.453 219.908L161.534 233.617C169.323 246.841 169.262 247.789 159.844 260.241C154.012 267.95 146.587 272.559 141.412 271.681C117.2 267.568 115.551 268.58 97.1982 298.832C72.8508 338.969 70.41 349.569 83.1408 359.902C94.7904 369.357 95.172 372.005 87.3372 388.917C82.605 399.128 78.3798 401.491 64.7928 401.519C63.4332 401.522 62.1906 401.496 61.0476 401.472C57.469 401.396 54.8645 401.341 52.6822 402.274C46.8461 404.768 44.0297 414.328 33.6814 449.453C32.4445 453.652 31.0998 458.216 29.6295 463.177C21.0169 492.229 24.7898 504.28 42.4902 504.28C48.4757 504.28 51.2193 507.6 51.1727 514.786C51.0423 536.811 45.5506 546.742 32.0004 549.46L18.632 552.14V600.582C18.632 645.318 19.3214 649.026 27.6173 649.026C50.7442 649.026 61.1874 687.486 40.2311 695.478C25.796 700.98 22.5866 715.044 30.2584 739.17C33.682 749.94 37.7111 764.388 39.211 771.27C43.0026 788.676 54.1399 798.444 70.2006 798.444C79.2234 798.444 83.844 800.814 83.844 805.446C83.844 809.298 85.9398 812.454 88.5018 812.454C96.6582 812.454 93.5184 827.814 83.0802 838.944C73.7406 848.916 73.4568 851.076 79.167 868.434C82.5582 878.73 86.5734 887.16 88.092 887.16C89.6058 887.16 95.7774 896.472 101.8 907.86C114.139 931.17 122.174 936.108 135.86 928.77C143.508 924.666 147.379 925.692 156.481 934.266C169.561 946.578 170.362 953.442 160.491 968.538C153.546 979.164 154.193 980.538 178.672 1007.03C211.249 1042.31 224.762 1050.07 235.266 1039.54C245.015 1029.77 251.327 1030.1 264.448 1041.07C273.275 1048.45 274.565 1052.89 272.195 1067.76L269.353 1085.6L306.603 1108.17C338.273 1127.36 345.316 1129.96 353.588 1125.52C358.945 1122.64 363.323 1118.5 363.323 1116.29C363.323 1107.4 378.914 1107.13 391.071 1115.81C400.546 1122.58 403.443 1127.96 401.92 1135.96C399.413 1149.11 405.604 1154.35 433.193 1162.43C444.722 1165.81 460.703 1170.72 468.706 1173.34C487.035 1179.34 497.311 1175.47 503.017 1160.43C510.455 1140.83 542.703 1146.28 547.454 1167.95L550.449 1181.63L600.12 1180.31L649.788 1178.99L651.222 1166.62C652.674 1154.03 662.046 1148.83 683.562 1148.71C690.894 1148.66 694.044 1151.39 694.044 1157.81C694.044 1175.96 710.496 1178.56 751.692 1166.94C792.768 1155.35 796.338 1152.68 796.446 1133.59C796.5 1124.12 800.208 1118.95 810.966 1113.37C824.658 1106.28 825.96 1106.39 835.716 1115.59C850.152 1129.17 858 1127.93 894.3 1106.31C928.956 1085.68 934.338 1078.45 926.298 1063.39C921.804 1054.97 922.872 1051.93 933.558 1042.71C948.132 1030.15 956.13 1029.16 964.206 1038.91C967.398 1042.76 972.618 1045.91 975.816 1045.91C983.118 1045.91 1043.39 985.908 1043.39 978.642C1043.39 975.696 1040.12 968.598 1036.12 962.868C1029.39 953.25 1029.59 951.39 1038.76 938.484C1039.45 937.524 1040.08 936.624 1040.68 935.778C1045.27 929.268 1047.44 926.19 1050.25 925.416C1052.78 924.72 1055.83 925.896 1061.62 928.134C1062.45 928.452 1063.34 928.794 1064.29 929.16C1079.69 935.034 1090.09 924.69 1113.26 880.452L1129.57 849.318L1119.08 840.642C1100.17 824.988 1108.87 800.214 1134.21 797.568C1144.86 796.452 1150.04 792.24 1156.11 779.766C1160.48 770.778 1164.16 757.77 1164.28 750.858C1164.4 743.946 1166.59 736.998 1169.15 735.408C1171.72 733.824 1173.82 725.502 1173.82 716.916C1173.82 703.626 1171.65 700.542 1159.25 696.216C1146.06 691.608 1144.96 689.742 1147.6 676.494C1149.21 668.454 1150.52 660.03 1150.52 657.78C1150.52 655.536 1155.64 653.694 1161.89 653.694C1168.15 653.694 1174.58 651.564 1176.19 648.954C1180.35 642.198 1180.46 557.977 1176.32 551.258C1174.42 548.18 1170.28 546.668 1167.1 547.886C1157.56 551.557 1151.56 544.898 1148.19 526.912C1145.29 511.396 1146.19 509.309 1158.24 503.542C1172.45 496.744 1178.93 474.854 1169.52 465.422C1166.76 462.653 1164.5 455.211 1164.5 448.884C1164.5 442.557 1160.95 429.32 1156.62 419.468C1149.79 403.942 1146.7 401.557 1133.44 401.557C1120.96 401.557 1116.74 398.82 1110.47 386.643C1102.88 371.939 1102.95 371.589 1115.79 361.326L1128.81 350.918L1112.89 319.681C1090.29 275.36 1079.83 264.92 1064.03 270.938C1041.42 279.558 1024.07 255.637 1037.02 233.683C1045.03 220.085 1045.02 220.062 1026.96 199.919C1007.82 178.585 979.224 154.085 973.452 154.085C971.556 154.085 967.398 157.237 964.206 161.089C955.842 171.194 944.058 169.718 932.214 157.074C923.214 147.474 922.602 144.476 927.48 133.746C932.22 123.334 931.776 120 924.63 112.081C919.98 106.936 914.478 102.724 912.408 102.724C910.332 102.724 898.716 96.42 886.596 88.716C860.304 72 845.28 71.0052 833.694 85.2138C825.426 95.3466 824.658 95.4396 811.98 87.8568C802.83 82.3752 798.006 74.9274 796.08 63.2916C794.556 54.1074 792.462 45.9082 791.424 45.0817C784.878 39.8521 711.798 22.6832 705.84 24.9759C701.832 26.5167 696.45 33.3385 693.876 40.1323C689.796 50.8903 687.312 52.1136 674.73 49.5922C666.78 47.9953 658.602 46.6926 656.562 46.6926Z" fill="#6B6B6B"/>
<path d="M571.078 773.73C567.514 829.008 556.111 861.276 531.396 886.05C518.629 898.854 512.983 901.146 494.551 901.02C469.492 900.852 461.131 895.734 449.728 873.612C428.902 833.22 460.344 778.284 530.721 732.096C573.812 703.824 575.479 705.534 571.078 773.73Z" fill="#6B6B6B"/>
<path d="M439.953 176.909C471.208 164.82 480.794 163.06 501.35 165.632C522.721 168.308 526.326 167.538 530.709 159.32C533.819 153.496 544.564 149.48 560.424 147.423C501.421 151.319 458.388 166.637 439.953 176.909Z" fill="#6B6B6B"/>
</g>
<defs>
<clipPath id="clip0_11500_72765">
<rect width="1200" height="1200" fill="white"/>
</clipPath>
</defs>
</svg>
