<svg width="256" height="256" viewBox="0 0 256 256" fill="none" xmlns="http://www.w3.org/2000/svg">
<path fill-rule="evenodd" clip-rule="evenodd" d="M128 0C57.3026 0 0 57.3026 0 128C0 198.697 57.3026 256 128 256C198.697 256 256 198.697 256 128C256 57.3026 198.697 0 128 0Z" fill="#BDC5D1"/>
<g clip-path="url(#clip0_14716_6268)">
<path d="M203.486 174.488C203.511 170.441 218.986 170.611 218.88 166.821C218.804 163.904 211.955 163.972 214.108 157.793C217.275 148.58 219 138.69 219 128.406C219 78.4752 178.481 38 128.5 38C78.519 38 38 78.4752 38 128.402C38 138.723 39.7359 148.634 42.9285 157.876C42.9466 157.92 43.1242 158.445 43.1242 158.445C44.4107 162.542 38.0181 164.15 38.0181 166.597C38.0181 170.43 51.481 169.913 51.481 174.376C51.481 178.261 38.1703 179.459 38.1703 183.379C38.1703 188.795 67.6509 186.909 68.0241 191.568C68.314 195.162 57.888 195.376 57.8301 199.217C57.7286 205.345 98.0664 203.34 98.0664 207.42C98.0664 210.504 79.7185 209.393 79.7185 213.038C79.7185 216.683 103.872 218.996 130.482 218.996C157.093 218.996 175.459 216.039 175.459 212.842C175.459 209.646 158.328 210.308 158.676 207.42C159.3 202.388 197.322 204.962 197.322 199.141C197.322 196.071 186.863 195.358 187.204 192.049C187.682 187.372 219 188.071 219 183.216C219 179.401 203.486 178.463 203.504 174.503L203.486 174.485V174.488ZM179.22 162.749C178.394 165.833 187.925 166.293 187.925 169.515C187.925 173.435 158.854 171.871 159.144 177.055C159.321 180.32 179.8 180.871 179.409 184.281C178.847 189.218 147.699 186.753 147.391 191.481C147.17 194.949 162.59 195.068 162.626 198.232C162.652 200.893 150.508 202.348 127.257 202.348C100.763 202.348 87.8868 200.922 89.3509 197.946C90.7207 195.166 114.175 195.684 113.939 191.314C113.7 186.945 72.2895 188.237 71.0392 184.002C69.9992 180.483 84.647 179.759 84.5528 176.418C84.4586 173.008 65.7954 173.783 65.3859 169.659C65.1214 166.948 75.1379 167.125 74.703 163.719C74.3877 161.236 70.2528 161.587 67.7994 156.475C63.8421 147.932 61.6207 138.426 61.6207 128.406C61.6207 91.5181 91.5506 61.6205 128.478 61.6205C165.406 61.6205 195.336 91.5181 195.336 128.406C195.336 137.503 193.513 146.173 190.212 154.079C187.07 161.185 179.999 159.759 179.199 162.749H179.217H179.22Z" fill="white"/>
</g>
<defs>
<clipPath id="clip0_14716_6268">
<rect width="181" height="181" fill="white" transform="translate(38 38)"/>
</clipPath>
</defs>
</svg>
